<svg width="308" height="162" viewBox="0 0 308 162" fill="none" xmlns="http://www.w3.org/2000/svg">
<path d="M0 130.657C0.387 130.802 0.909 130.877 1.505 130.877C4.312 130.877 5.15 129.13 5.15 127.307V117.677H3.29V126.717C3.29 128.293 2.843 129.24 1.169 129.24C0.814 129.24 0.406 129.207 0 129.055V130.657ZM9.613 124.166C9.613 121.523 11.027 119.067 13.893 119.087C16.756 119.067 18.168 121.524 18.168 124.166C18.168 126.744 16.883 129.239 13.893 129.239C10.898 129.239 9.613 126.744 9.613 124.166ZM7.641 124.166C7.641 128.108 9.929 130.877 13.892 130.877C17.851 130.877 20.138 128.108 20.138 124.166C20.138 120.316 17.833 117.451 13.892 117.451C9.946 117.45 7.641 120.316 7.641 124.166ZM22.685 130.657H24.545V124.744H30.757V130.657H32.618V117.676H30.757V123.102H24.545V117.676H22.685V130.657ZM33.47 130.657H35.423L36.744 127.378H43.106L44.425 130.657H46.452L40.965 117.676H39.014L33.47 130.657ZM42.508 125.857H37.34L39.923 119.425L42.508 125.857ZM47.568 130.657H49.428V119.98H49.466L55.341 130.657H57.722V117.676H55.861V128.122H55.824L50.097 117.676H47.568V130.657ZM60.994 130.657H62.856V119.98H62.892L68.767 130.657H71.148V117.676H69.287V128.122H69.249L63.523 117.676H60.995L60.994 130.657ZM74.905 130.657H82.176V129.018H76.762V124.744H81.691V123.102H76.762V119.311H82.176V117.676H74.905V130.657ZM91.308 117.915C90.412 117.602 89.391 117.451 88.535 117.451C86.192 117.451 84.369 118.681 84.369 120.984C84.369 125.022 89.95 124.219 89.95 127.122C89.95 128.647 88.462 129.24 87.402 129.24C86.453 129.24 85.339 128.874 84.706 128.61L84.519 130.339C85.375 130.623 86.267 130.878 87.18 130.878C89.783 130.878 91.919 129.787 91.919 127.011C91.919 122.731 86.342 123.311 86.342 120.815C86.342 119.464 87.568 119.088 88.612 119.088C89.578 119.088 90.098 119.255 91.047 119.629L91.308 117.915Z" fill="#999999"/>
<path d="M251.025 151.485H252.887V140.245H252.925L257.217 151.485H259.046L263.339 140.245H263.372V151.485H265.232V138.496H262.168L258.166 149.286L254.095 138.496H251.025V151.485ZM266.39 151.485H268.341L269.654 148.209H276.015L277.341 151.485H279.367L273.879 138.496H271.932L266.39 151.485ZM275.429 146.686H270.258L272.844 140.245L275.429 146.686ZM280.592 151.485H282.45V138.496H280.592V151.485ZM286.302 151.485H288.163V140.804H288.199L294.076 151.485H296.46V138.496H294.596V148.953H294.559L288.832 138.496H286.302V151.485ZM298.5 151.485H307.484V149.845H300.662L307.371 140.173V138.495H298.726V140.133H305.23L298.5 149.804V151.485Z" fill="#999999"/>
<path d="M73.5679 138.485H70.3879V151.07C70.3879 155.33 69.0509 158.259 64.9509 158.259C60.8509 158.259 59.5129 155.329 59.5129 151.07V138.485H56.3379V151.487C56.3379 157.711 59.4839 161.057 64.9509 161.057C70.4209 161.057 73.5679 157.71 73.5679 151.487V138.485ZM79.5419 160.673H82.7219V142.424H82.7849L92.8309 160.673H96.8989V138.485H93.7199V156.349H93.6569L83.8649 138.485H79.5409L79.5419 160.673ZM103.161 160.673H106.339V138.485H103.161V160.673ZM129.864 138.485H126.525L119.5 157.872H119.438L112.601 138.485H109.045L117.405 160.673H121.377L129.864 138.485ZM132.722 160.673H145.154V157.872H135.902V150.561H144.325V147.763H135.902V141.278H145.154V138.485H132.722V160.673ZM151 160.673H154.181V150.819H156.088C157.772 150.819 158.824 150.819 159.81 152.976L163.208 160.673H166.834L162.637 151.836C161.936 150.463 161.463 149.991 160.474 149.614V149.544C163.049 149.105 165.051 147.195 165.051 144.492C165.051 139.18 160.826 138.485 156.438 138.485H151V160.673ZM154.181 141.278H157.232C160.156 141.278 161.683 142.552 161.683 144.554C161.683 146.686 159.903 148.015 156.883 148.015H154.182V141.278H154.181ZM182.092 138.892C180.565 138.356 178.819 138.103 177.35 138.103C173.347 138.103 170.235 140.198 170.235 144.144C170.235 151.036 179.771 149.672 179.771 154.631C179.771 157.235 177.226 158.259 175.418 158.259C173.792 158.259 171.885 157.623 170.806 157.174L170.488 160.134C171.95 160.609 173.473 161.057 175.034 161.057C179.489 161.057 183.139 159.173 183.139 154.44C183.139 147.132 173.603 148.115 173.603 143.854C173.603 141.535 175.702 140.895 177.481 140.895C179.131 140.895 180.022 141.187 181.649 141.819L182.092 138.892ZM188.096 160.673H191.277V138.485H188.096V160.673ZM201.034 160.673H204.214V141.278H211.113V138.485H194.142V141.278H201.034V160.673ZM214.705 136.634H217.694V133.459H214.705V136.634ZM219.919 136.634H222.909V133.459H219.919V136.634ZM207.715 160.673H211.053L213.309 155.077H224.179L226.437 160.673H229.904L220.526 138.485H217.188L207.715 160.673ZM223.163 152.467H214.325L218.745 141.471L223.163 152.467ZM233.395 160.673H236.577V141.278H243.474V138.485H226.496V141.278H233.394V160.673H233.395Z" fill="#999999"/>
<path d="M118.174 109.111C116.329 108.474 114.902 108 111.659 108C104.887 108 99.9268 112.545 99.9268 119.382C99.9268 126.437 104.6 130.946 111.625 130.946C115.09 130.946 117.185 130.376 118.397 129.961V118.427H110.543V121.03H115.216V127.774C114.422 127.927 113.851 128.149 111.659 128.149C107.047 128.149 103.298 124.688 103.298 119.478C103.298 114.517 106.697 110.797 111.817 110.797C114.677 110.797 116.359 111.306 117.918 112.324L118.174 109.111ZM141.284 108.383H138.104V120.967C138.104 125.226 136.768 128.149 132.666 128.149C128.569 128.149 127.234 125.226 127.234 120.967V108.383H124.053V121.38C124.053 127.609 127.203 130.945 132.666 130.945C138.138 130.945 141.284 127.609 141.284 121.38V108.383ZM150.439 130.571H153.616V111.175H160.514V108.384H143.54V111.175H150.438L150.439 130.571ZM163.217 130.571H175.645V127.774H166.397V120.464H174.819V117.664H166.397V111.174H175.645V108.383H163.217V130.571ZM181.657 130.571H184.833V112.324H184.898L194.936 130.571H199.011V108.383H195.834V126.248H195.769L185.977 108.383H181.658V130.571H181.657ZM206.355 130.571H212.269C216.787 130.571 220.721 129.422 220.721 124.655C220.721 121.539 218.592 119.571 215.575 119.316V119.253C218.373 118.553 220.149 117.028 220.149 113.971C220.149 109.875 216.976 108.383 212.364 108.383H206.354L206.355 130.571ZM209.532 120.464H211.597C214.332 120.464 217.351 120.937 217.351 124.368C217.351 127.36 214.777 127.963 211.918 127.963H209.531L209.532 120.464ZM209.532 110.987H212.87C214.716 110.987 216.976 111.653 216.976 114.29C216.976 117.565 214.363 117.851 211.282 117.851H209.532V110.987ZM226.925 130.571H239.349V127.774H230.103V120.464H238.521V117.664H230.103V111.174H239.349V108.383H226.925V130.571ZM244.882 130.571H248.056V120.71H249.968C251.651 120.71 252.701 120.71 253.688 122.877L257.087 130.571H260.71L256.519 121.729C255.816 120.364 255.339 119.89 254.356 119.506V119.442C256.933 118.998 258.934 117.091 258.934 114.389C258.934 109.08 254.706 108.383 250.316 108.383H244.882V130.571ZM248.056 111.175H251.118C254.038 111.175 255.564 112.446 255.564 114.453C255.564 116.58 253.779 117.915 250.764 117.915H248.056V111.175ZM281.282 109.111C279.429 108.474 278.01 108 274.765 108C267.992 108 263.033 112.545 263.033 119.382C263.033 126.437 267.704 130.946 274.734 130.946C278.198 130.946 280.293 130.376 281.501 129.961V118.427H273.647V121.03H278.329V127.774C277.525 127.927 276.957 128.149 274.766 128.149C270.156 128.149 266.407 124.688 266.407 119.478C266.407 114.517 269.803 110.797 274.922 110.797C277.785 110.797 279.465 111.306 281.023 112.324L281.282 109.111Z" fill="#999999"/>
<path d="M122 0V98.244H220.25V0H122Z" fill="#C10B25"/>
<path d="M137.837 60.8322C137.837 64.3462 137.62 68.8022 135.809 68.8022C134.758 68.8022 134.469 68.0042 134.177 67.2052C133.889 66.4442 133.563 65.6502 132.365 65.6502C131.389 65.6502 130.373 66.4442 130.554 67.4962C130.881 69.4542 132.802 70.2152 134.613 70.2152C139.465 70.2152 141.093 65.2162 141.093 61.0872V39.4992C141.093 37.8322 142.217 37.6872 143.667 37.5812L144.644 37.5072L144.79 37.2892V36.5652L144.608 36.3832C143.158 36.3832 140.986 36.5652 139.175 36.5652C136.714 36.5652 135.552 36.3832 134.574 36.3832C134.356 36.3832 134.03 36.4192 133.993 36.8202V37.3972L134.175 37.5812C137.216 37.5812 137.835 38.0882 137.835 40.1502V60.8322H137.837ZM171.233 54.0612C171.233 52.1772 171.704 51.9582 173.44 51.9582H173.876C174.061 51.9582 174.131 51.5252 174.131 51.1612C174.131 50.9812 174.168 50.6912 173.913 50.6912H163.447C163.12 50.6912 163.079 51.0542 163.079 51.5252C163.079 51.8862 163.154 52.1032 163.334 52.1032H166.014C167.539 52.1032 168.485 52.6472 168.485 54.4592V56.9562C168.485 59.1662 166.269 61.0492 161.994 61.0492C156.346 61.0492 151.603 55.4732 151.603 49.1352C151.603 40.4412 158.3 37.2882 162.572 37.2882C167.352 37.2882 169.567 40.0412 170.035 42.7942C170.075 42.9402 170.253 42.9402 170.469 42.9402C170.654 42.9402 171.235 42.8302 171.235 42.6142C171.235 41.0192 171.05 38.1592 170.98 37.8712C168.808 36.7462 166.27 35.8782 162.905 35.8782C158.734 35.8782 147.546 38.0502 147.546 49.7852C147.546 55.2902 152.144 62.4582 162.539 62.4582C164.203 62.4582 168.442 61.9542 171.235 60.2152V54.0612H171.233Z" fill="white"/>
<path d="M210.052 36.366H206.364V50.987C206.364 55.933 204.815 59.331 200.047 59.331C195.288 59.331 193.742 55.934 193.742 50.987V36.366H190.045V51.466C190.045 58.704 193.702 62.577 200.047 62.577C206.401 62.577 210.053 58.704 210.053 51.466V36.366H210.052Z" fill="white"/>
<path d="M180.938 18.1741V79.1391H182.901V18.1741H180.938Z" fill="white"/>
</svg>
